<svg height="480pt" viewBox="0 0 480 480" width="480pt" xmlns="http://www.w3.org/2000/svg"><path d="m328 72v360h-320v-424h264v64zm0 0" fill="#ffbcab"/><path d="m176 112c0 35.347656-28.652344 64-64 64s-64-28.652344-64-64 28.652344-64 64-64 64 28.652344 64 64zm0 0" fill="#ddfffb"/><path d="m248 320v-32h32v32h8v80h-8v32h-32v-32h-8v-80zm0 0" fill="#ffbcab"/><path d="m177.679688 264h278.320312v24h-288v-24zm0 0" fill="#898890"/><path d="m384 320h48v80h-48zm0 0" fill="#898890"/><path d="m288 320h48v80h-48zm0 0" fill="#898890"/><path d="m192 320h48v80h-48zm0 0" fill="#898890"/><path d="m456 432v24c-.027344 8.824219-7.175781 15.972656-16 16h-256c-8.824219-.027344-15.972656-7.175781-16-16v-24zm0 0" fill="#898890"/><g fill="#e0e0e2"><path d="m248 400v32h-64v-32zm0 0"/><path d="m248 288v32h-64v-32zm0 0"/><path d="m344 400v32h-64v-32zm0 0"/><path d="m344 288v32h-64v-32zm0 0"/><path d="m440 288v32h-64v-32zm0 0"/><path d="m440 400v32h-64v-32zm0 0"/><path d="m472 232v32h-320v-32l160-56zm0 0"/></g><path d="m159.519531 154.800781v.078125c-12.136719 13.460938-29.414062 21.136719-47.539062 21.121094-18.121094-.015625-35.386719-7.71875-47.5-21.199219 2.515625-15.453125 15.863281-26.804687 31.519531-26.800781h32c15.65625-.003906 29.003906 11.347656 31.519531 26.800781zm0 0" fill="#ffdaaa"/><path d="m136 104c0 13.253906-10.746094 24-24 24s-24-10.746094-24-24 10.746094-24 24-24 24 10.746094 24 24zm0 0" fill="#ffdaaa"/><path d="m272 8 56 64h-56zm0 0" fill="#ff9478"/><path d="m328 224c0 8.835938-7.164062 16-16 16s-16-7.164062-16-16 7.164062-16 16-16 16 7.164062 16 16zm0 0" fill="#d80027"/><path d="m474.640625 224.449219-138.640625-48.527344v-103.921875c0-1.9375-.703125-3.804688-1.976562-5.265625l-56-64c-1.519532-1.738281-3.714844-2.734375-6.023438-2.734375h-264c-4.417969 0-8 3.582031-8 8v424c0 4.417969 3.582031 8 8 8h152v16c0 13.253906 10.746094 24 24 24h256c13.253906 0 24-10.746094 24-24v-24c0-4.417969-3.582031-8-8-8h-8v-24c0-4.417969-3.582031-8-8-8v-64c4.417969 0 8-3.582031 8-8v-24h8c4.417969 0 8-3.582031 8-8v-16h8c4.417969 0 8-3.582031 8-8v-32c0-3.402344-2.148438-6.429688-5.359375-7.550781zm-194.640625-195.152344 30.398438 34.703125h-30.398438zm-264 394.703125v-408h248v56c0 4.417969 3.582031 8 8 8h48v90.320312l-5.359375-1.871093c-1.710937-.597657-3.570313-.597657-5.28125 0l-160 56c-3.210937 1.121093-5.359375 4.148437-5.359375 7.550781v32c0 4.417969 3.582031 8 8 8h8v16c0 4.417969 3.582031 8 8 8h8v24c0 4.417969 3.582031 8 8 8v64c-4.417969 0-8 3.582031-8 8v24zm256-128v24c0 4.417969 3.582031 8 8 8v64c-4.417969 0-8 3.582031-8 8v24h-16v-24c0-4.417969-3.582031-8-8-8v-64c4.417969 0 8-3.582031 8-8v-24zm96 0v24c0 4.417969 3.582031 8 8 8v64c-4.417969 0-8 3.582031-8 8v24h-16v-24c0-4.417969-3.582031-8-8-8v-64c4.417969 0 8-3.582031 8-8v-24zm-72 32h32v64h-32zm-8 80h48v16h-48zm48-96h-48v-16h48zm-136 16h32v64h-32zm-8 80h48v16h-48zm48-96h-48v-16h48zm208 144c0 4.417969-3.582031 8-8 8h-256c-4.417969 0-8-3.582031-8-8v-16h272zm-64-32v-16h48v16zm40-32h-32v-64h32zm8-80h-48v-16h48zm16-32h-272v-8h272zm16-24h-304v-18.320312l152-53.199219 152 53.199219zm0 0"/><path d="m288 224c0 13.253906 10.746094 24 24 24s24-10.746094 24-24-10.746094-24-24-24-24 10.746094-24 24zm32 0c0 4.417969-3.582031 8-8 8s-8-3.582031-8-8 3.582031-8 8-8 8 3.582031 8 8zm0 0"/><path d="m112 184c39.765625 0 72-32.234375 72-72s-32.234375-72-72-72-72 32.234375-72 72c.042969 39.746094 32.253906 71.957031 72 72zm-38.679688-31.609375c3.210938-9.800781 12.367188-16.417969 22.679688-16.390625h32c10.3125-.027344 19.46875 6.589844 22.679688 16.390625-21.589844 20.808594-55.769532 20.808594-77.359376 0zm22.679688-48.390625c0-8.835938 7.164062-16 16-16s16 7.164062 16 16-7.164062 16-16 16-16-7.164062-16-16zm16-48c19.660156-.019531 37.886719 10.28125 48.011719 27.132812 10.125 16.851563 10.660156 37.78125 1.414062 55.132813-5.277343-8.160156-13.375-14.09375-22.746093-16.664063 8.847656-13.363281 6.449218-31.207031-5.613282-41.757812s-30.070312-10.550781-42.132812 0-14.460938 28.394531-5.613282 41.757812c-9.371093 2.574219-17.46875 8.507813-22.746093 16.671876-9.25-17.351563-8.71875-38.285157 1.40625-55.136719 10.125-16.855469 28.355469-27.160157 48.019531-27.136719zm0 0"/><path d="m240 96h16v16h-16zm0 0"/><path d="m272 96h32v16h-32zm0 0"/><path d="m240 128h64v16h-64zm0 0"/><path d="m32 200h24v16h-24zm0 0"/><path d="m72 200h56v16h-56zm0 0"/><path d="m32 232h96v16h-96zm0 0"/><path d="m32 264h96v16h-96zm0 0"/><path d="m32 296h16v16h-16zm0 0"/><path d="m64 296h64v16h-64zm0 0"/><path d="m32 328h32v16h-32zm0 0"/><path d="m80 328h48v16h-48zm0 0"/></svg>